<svg version="1" xmlns="http://www.w3.org/2000/svg" width="1322.667" height="1322.667" viewBox="0 0 992.000000 992.000000"><path d="M244.7 229.6c-.2.3-3.1.7-6.3.9-6.6.5-13.1 1.4-15.4 2-.8.2-3.3.7-5.5 1-5.5.7-7.3 1.1-12.5 2.5-2.5.7-5.3 1.4-6.2 1.6-1 .2-2.7.6-3.8.9-1.1.3-2.8.7-3.7.9-3.1.7-21.6 7.4-26.6 9.5-2.6 1.1-5.1 2.1-5.5 2.2-2.8.6-26.6 13.9-36.2 20.2-15.3 10.2-26.3 19.2-42.1 34.7-8.7 8.5-11.6 11.7-20.9 22.6-7.6 9-19.4 25.8-24.7 35.4-12.8 22.9-20.6 42.4-26.2 65.3-3.6 14.4-3.7 15.1-6.1 33.2-1.5 11.2-1.8 18.6-1.6 37.5.2 12.9.7 24.6 1 26 .3 1.4.8 5 1.1 8 .7 7.6 4.4 26.7 5.9 31 .3.8.8 2.6 1 4 2.5 13.2 16 44.6 27.5 64 3.5 5.8 14 21.1 15.1 22 .3.3 1.9 2.3 3.6 4.5 14.8 20.1 45 47.7 68.9 63.1 21.5 13.8 51.1 26.8 73 32 .6.1 2.1.5 3.5.8 4.9 1.2 16.6 3.5 20.5 4 2.3.4 5.1.8 6.3 1.1 14 2.7 62.2 2.7 77.2.1 1.4-.3 4.3-.7 6.4-1.1 2.1-.3 4.8-.7 6-1 1.2-.3 3.2-.7 4.6-.9 4.8-.8 16.5-3.7 21.1-5.1 2.5-.9 5.4-1.7 6.5-1.9 2.6-.5 19.6-7.1 26.4-10.3 6.1-2.8 10.1-4.8 17.5-8.8 9.2-5 9.1-5 21.1-12.9 8.1-5.3 24.2-18.1 28.2-22.5 7.5-8.1 11.2-17.6 10.6-27.7-.4-7.6-.8-9.4-3.7-15.7-2.3-4.8-9.4-13.7-11-13.7-.4 0-1.6-.8-2.7-1.8-4-3.3-14.5-6.1-22.3-5.8-6.5.3-15.7 3-19.2 5.8-.5.5-4.6 3.7-8.9 7.3-28.5 23.3-60.6 36.9-97.2 41.1-14.4 1.7-43.1.9-55.9-1.6-2.7-.5-6.3-1.2-8-1.5-1.6-.2-4.5-.9-6.2-1.4-1.8-.5-3.3-.7-3.3-.4 0 .3-.6.1-1.2-.5-.7-.5-3.3-1.5-5.8-2.1-4.3-1.1-7.5-2.3-11.2-4.2-1-.5-2.3-.9-2.9-.9-1.9 0-20.9-9.9-28.3-14.7-8.5-5.6-17.7-12.5-23-17.3-7.3-6.5-14.3-13.5-14.7-14.6-.4-1.2-4.4-6.4-9.4-12.3-16.2-19.3-31-48-36-70.1-.3-1.5-2.6-11.9-3.1-14-.5-2.7-1.1-7.5-2.1-18-1.1-11.3-.4-37.2 1.2-45 .5-2.6 1.6-9.3 2-12 .1-.8.8-3.5 1.4-6 .7-2.5 1.5-5.4 1.7-6.4.6-3.2 6.2-19.1 7.9-22.2.8-1.6 1.5-3.4 1.5-4 0-.6.7-1.7 1.5-2.4.9-.7 1.3-1.5 1.1-1.8-1.4-1.3 13.8-25 23.4-36.7 3-3.7 24.6-25.1 28.5-28.3 9-7.4 29.6-20.5 36.5-23.2 1.9-.7 4.3-2 5.4-2.9 1-.9 2-1.5 2.2-1.3.3.2 3.5-.8 7.3-2.3 3.7-1.4 7.6-2.8 8.7-3 1-.3 4.4-1.2 7.4-2 8.9-2.5 19.2-4.5 20.1-3.9.5.3.9.2.9-.3 0-.4 1-.8 2.3-.9 1.2 0 5.6-.4 9.7-.8 8.1-.8 31-.9 34.8-.2 1.3.3 5.3.8 8.9 1.1 17.1 1.5 39 8 57.2 16.8 5.8 2.8 11.1 5.5 11.6 5.9.6.4 5.3 3.6 10.5 7 5.2 3.5 10.2 7 11 7.8 3.3 3.1 10.3 8.6 12.8 9.9 3 1.6 10.8 9.5 18.4 18.6 2.8 3.3 5.4 6.2 5.7 6.5 1.8 1.4 13.5 19.7 17.5 27.3 9.6 18.2 14.4 32.7 19.2 58.7.3 1.4.7 9.7.9 18.5.6 18.5 1.5 39.7 2 44 1.3 11 3.5 22.8 6.7 35.5 3.5 13.5 3.3 13.1 4.1 15 .3.8 1.6 4.4 2.8 8 4.4 12.9 13.2 31.5 20.9 44.5 4.3 7.1 13.2 20 14.1 20.3.5.2.9.8.9 1.4 0 .6 1.2 2.5 2.8 4.3 1.5 1.8 4.3 5.2 6.2 7.6 3.8 4.7 30.6 31.9 35.4 35.8 18.1 14.8 36.7 27 54.1 35.5 14.7 7.2 35 14.9 45 17.2.6.1 3.7.9 7 1.7 3.3.9 7.4 1.8 9 2.1 1.7.3 4.1.7 5.5 1 1.4.4 4.3.8 6.5 1.1 2.2.3 5.1.7 6.5 1 10.6 2 53.7 2.8 67.4 1.2 22.5-2.6 43.5-7.1 56.6-12.1 1.9-.8 3.7-1.4 4-1.4.3 0 2.3-.7 4.5-1.6 2.2-1 5.2-2 6.7-2.3 1.5-.3 3.3-1.2 3.9-1.9.6-.8 1.8-1.4 2.5-1.4 2 0 18.4-8.3 27.7-14.1 4.3-2.7 8.1-4.9 8.3-4.9.3 0 1-.4 1.7-1 .7-.5 5.7-4.3 11.2-8.4 12.5-9.2 25-20.1 34.6-30.1 4.1-4.3 8.4-8.8 9.7-10.1 1.2-1.3 2.2-2.8 2.2-3.4 0-.5.4-1 .9-1 1.1 0 12.1-14 18.5-23.5 2.5-3.9 5-7.5 5.5-8.1.4-.5 1.4-2.1 2.1-3.5.7-1.3 1.6-2.6 1.9-2.9.3-.3 2.2-3.7 4.1-7.5 1.9-3.9 4-7.7 4.6-8.5 1.8-2.6 10-23 13.4-33.5 1.8-5.5 3.5-10.7 3.7-11.5.3-.8.7-2.4.8-3.6.2-1.1.9-4 1.5-6.5 1.4-4.9 1.6-6 2.4-11.5.7-4.4 1.4-8.5 2.1-12.9 1.4-8.6 2-19 2-38 0-26.2-1.4-40.6-5.7-59.5-.5-2.5-1.1-5.2-1.3-6-.2-.8-.8-3.5-1.5-6s-1.3-5-1.4-5.7c-.1-.7-.5-1.6-.9-1.9-.4-.4-.7-1.4-.7-2.1 0-4.5-12.5-33.7-21-48.8-5.8-10.5-21.5-33.4-24.9-36.5-.3-.3-2.3-2.6-4.3-5.1-5.1-6.4-23-24.3-31.3-31.4-3.8-3.3-7.2-6.2-7.5-6.6-2.6-2.8-27.4-19.9-28.9-19.9-.6 0-1.1-.3-1.1-.8 0-.4-1.3-1.3-3-2-1.6-.7-4.4-2.3-6.2-3.5-1.8-1.3-9.1-4.9-16.1-8-16.1-7.3-29-11.6-49.7-16.7-4.9-1.2-13.7-2.8-19-3.5-2.5-.3-5.6-.7-7-1-11.3-2.2-58-2.2-69 0-1.4.3-4.5.8-7 1.1-6.6.8-10.3 1.4-10.9 1.8-.3.2-2.7.7-5.4 1-2.6.4-5.8 1.1-7.2 1.6-1.4.5-2.5.7-2.5.4 0-.4-.6-.1-1.3.5-.8.6-1.7.8-2 .4-.4-.3-1.3 0-2.2.7-.8.7-1.5 1-1.5.6 0-.7-24.3 7.7-31.7 11.1-3.2 1.5-6 2.7-6.3 2.7-1.7.3-23.3 12.4-29.7 16.6-4.2 2.7-8 5-8.4 5-.5 0-.9.3-.9.7 0 .5-1.7 1.9-3.7 3.3-4.4 2.9-6.1 4.3-15.7 12.5-5.5 4.8-7.8 7.6-10.6 13.3-2 4-3.7 7.8-3.8 8.5-.1.7-.2 4.3-.3 8.2-.3 16.6 9.9 31 25.6 36.4 8.2 2.7 19.9 2.4 27.5-.9 3-1.3 5.7-2.7 6-3 3.4-3.9 24.2-18.9 33.5-24.1 3.3-1.8 6.3-3.7 6.6-4.2.3-.5.9-.8 1.3-.8.3.1 3.4-1.1 6.9-2.7 3.4-1.6 8-3.5 10.2-4.2 2.2-.7 4.5-1.6 5-2 .6-.4 2.6-1.1 4.5-1.6 4.2-1 4.1-.9 6-1.7 4.8-1.8 23.6-5.3 34-6.2 7.4-.7 29.8-.7 35-.1 1.9.3 6 .7 9.1 1 3 .3 8 1.1 11 1.7 3 .5 6.5 1.3 7.9 1.5 2.9.6 15.8 4.2 18 5.1.8.3 2 .7 2.7.9 4.3.9 27.6 12.3 34.2 16.8 2.9 2 5.5 3.6 5.8 3.6 1.5 0 18.9 14.5 25.8 21.5 11.9 11.9 29.9 35.7 35.6 47 1.1 2.2 2.4 4.7 2.9 5.5 6.2 9.7 15.1 37.3 17.6 54 .3 1.9.7 5.3 1.1 7.5 1 6.7 1.1 39.6.2 46.5-1.3 9.3-1.6 11.2-3.4 20.5-1.1 5.6-1 4.9-4.5 16-3.6 11.2-5.3 15.4-11.2 27-2.3 4.4-4.6 9-5.2 10.2-.6 1.3-1.4 2.3-1.8 2.3-.5 0-.8.4-.8 1 0 .5-2.3 4.3-5.1 8.2-14.1 19.9-32.4 37.8-52.4 51.3-10.7 7.1-30 17.5-32.8 17.5-.7 0-1.7.4-2.2.9-1 .9-19 6.7-23.6 7.6-1.3.3-4.6.9-7.4 1.5-13.7 2.7-21.6 3.4-38 3.4-11.8 0-26.7-.9-30.5-1.9-.8-.2-3.1-.6-5-.9-1.9-.3-4.4-.8-5.5-1.1-1.1-.2-4-.9-6.5-1.5-18.4-4.4-38.7-13.4-55.5-24.5-3.3-2.2-6.5-4.4-7.1-5-.6-.5-2.6-2.1-4.4-3.5-4.2-3.1-9.3-7.3-10-8-.3-.4-2.5-2-5-3.7-2.5-1.7-7.4-6.4-11-10.4-3.6-3.9-7-7.7-7.5-8.3-.6-.6-2.6-3.1-4.5-5.6-1.9-2.5-3.7-4.7-4-5-.8-.7-8.3-12.5-10.6-16.5-8.3-14.7-17.4-36.8-17.4-42.4 0-1.1-.4-2.2-.9-2.5-.4-.3-1.1-2.5-1.4-4.8-.3-2.4-.8-5.4-1.1-6.8-.4-1.4-.8-4.1-1.1-6-.3-1.9-.7-5.3-1-7.5-.3-2.2-.8-13.9-1-26-.3-12.1-.7-23.8-1-26-.4-2.2-.6-4.7-.7-5.5 0-.8-.4-4-.8-7-.5-3-1.2-7.5-1.5-10-.4-2.4-.8-4.7-1-5-.2-.3-.6-2.1-.9-4-.3-1.9-1-5-1.5-6.8-.5-1.8-1-3.3-1-3.5.1-.8-1.6-7.1-3.3-12.2-1.1-3.3-2.1-6.5-2.2-7-.2-.6-1-2.7-1.9-4.9-.9-2.1-1.7-4.2-1.7-4.7 0-1.7-10.8-24.4-15.9-33.3-1.2-2.1-4-6.6-6.2-9.8-2.1-3.3-3.9-6.2-3.9-6.4 0-.3-.5-1-1-1.7-.6-.7-3.4-4.4-6.3-8.3-8.6-11.7-16.6-20.8-28.7-32.6-12-11.8-13.6-13.2-23.5-21.1-3.3-2.6-6.7-5.3-7.5-6-2.9-2.3-18.6-12.4-25.6-16.5-17.9-10.4-46.4-21.8-61.8-24.8-1-.2-3.3-.8-5-1.3-3.9-1.2-18.4-3.9-25.6-4.7-3-.3-6.6-.8-8-1.1-3-.7-52.7-1.3-53.3-.7z"/></svg>